<?xml version="1.0" encoding="iso-8859-1"?>
<!-- Generator: Adobe Illustrator 19.0.0, SVG Export Plug-In . SVG Version: 6.00 Build 0)  -->
<svg version="1.1" id="Capa_1" xmlns="http://www.w3.org/2000/svg" xmlns:xlink="http://www.w3.org/1999/xlink" x="0px" y="0px"
	 viewBox="0 0 462.589 462.589" style="enable-background:new 0 0 462.589 462.589;" xml:space="preserve">
<g>
	<g>
		<path d="M422.16,116.31c0,0,0.08-0.32,0-0.48l-0.48-0.48C358.019,36.142,242.2,23.538,162.992,87.199
			c-3.277,2.634-6.463,5.379-9.552,8.231H16c-8.837,0-16,7.163-16,16v130.32c0,8.837,7.163,16,16,16h79.6
			c14.512,100.847,108.029,170.834,208.876,156.322c46.077-6.631,87.943-30.436,117.204-66.642l0.48-0.4c0,0,0,0,0-0.56
			C476.066,279.219,476.066,183.562,422.16,116.31z M270.08,63.59v87.84c-17.466-0.422-34.852-2.511-51.92-6.24v-34.24
			c-0.05-2.837-0.88-5.604-2.4-8C231.28,80.23,250.16,66.47,270.08,63.59z M270.08,223.43h-51.92v-61.84
			c17.095,3.519,34.471,5.501,51.92,5.92L270.08,223.43z M219.44,73.27c-6.718,6.752-12.723,14.178-17.92,22.16h-22.88
			C191.149,86.191,204.88,78.733,219.44,73.27z M16.4,241.75v-130.4h138.96c0.9,0.155,1.82,0.155,2.72,0h44.4v130.32h-38.4
			c-3.937-0.057-7.331,2.759-8,6.64l-5.12,30.08l-16.56-32c-1.378-2.659-4.125-4.326-7.12-4.32L16.4,241.75z M142.16,331.51
			c-16.025-21.89-26.51-47.335-30.56-74.16h10.88l25.28,49.36c1.378,2.659,4.125,4.326,7.12,4.32h1.2
			c3.392-0.535,6.064-3.175,6.64-6.56l5.28-30.88c1.862,13.533,4.75,26.905,8.64,40C164.564,318.368,153.01,324.372,142.16,331.51z
			 M152.24,343.99c9.329-6.025,19.214-11.142,29.52-15.28c8.071,22.792,20.949,43.582,37.76,60.96
			C193.691,380.183,170.587,364.497,152.24,343.99z M270.08,399.43c-30.08-4.48-56.88-33.76-73.04-76.16
			c23.674-7.338,48.26-11.324,73.04-11.84V399.43z M270.08,295.43c-26.63,0.505-53.054,4.788-78.48,12.72
			c-4.86-16.573-8.049-33.591-9.52-50.8h20.24c8.837,0,16-7.163,16-16v-1.92h51.92L270.08,295.43z M413.76,131.51
			c19.757,26.724,31.119,58.721,32.64,91.92h-55.36c-0.554-25.105-4.482-50.022-11.68-74.08
			C391.405,144.593,402.932,138.615,413.76,131.51z M403.6,119.43c-9.313,5.96-19.171,11.022-29.44,15.12
			c-8.113-22.688-20.926-43.407-37.6-60.8C362.283,83.31,385.293,98.988,403.6,119.43z M286.08,63.43
			c30.64,4.4,57.36,33.6,73.28,76.08c-23.747,7.39-48.415,11.402-73.28,11.92V63.43z M286.08,167.43
			c26.58-0.546,52.949-4.856,78.32-12.8c6.45,22.384,9.973,45.51,10.48,68.8h-88.8V167.43z M286.08,239.43h88.8
			c-0.508,23.29-4.031,46.415-10.48,68.8c-25.371-7.945-51.74-12.255-78.32-12.8V239.43z M286.08,399.43v-88
			c24.945,0.495,49.696,4.508,73.52,11.92C343.6,365.83,316.72,395.03,286.08,399.43z M336.56,389.51
			c16.676-17.392,29.489-38.111,37.6-60.8c10.255,3.968,20.112,8.897,29.44,14.72C385.338,364.019,362.325,379.837,336.56,389.51z
			 M413.705,331.315c-10.812-7.09-22.32-13.056-34.345-17.805c7.198-24.058,11.126-48.975,11.68-74.08h55.36
			C444.856,272.624,433.475,304.608,413.705,331.315z"/>
	</g>
</g>
<g>
</g>
<g>
</g>
<g>
</g>
<g>
</g>
<g>
</g>
<g>
</g>
<g>
</g>
<g>
</g>
<g>
</g>
<g>
</g>
<g>
</g>
<g>
</g>
<g>
</g>
<g>
</g>
<g>
</g>
</svg>
