<?xml version="1.0" encoding="iso-8859-1"?>
<!-- Generator: Adobe Illustrator 19.0.0, SVG Export Plug-In . SVG Version: 6.00 Build 0)  -->
<svg version="1.1" id="Capa_1" xmlns="http://www.w3.org/2000/svg" xmlns:xlink="http://www.w3.org/1999/xlink" x="0px" y="0px"
	 viewBox="0 0 470 470" style="enable-background:new 0 0 470 470;" xml:space="preserve">
<g>
	<g>
		<path d="M462,386.807h-33.12v-268.32c-1.141-29.448-25.938-52.395-55.386-51.254c-27.848,1.079-50.175,23.406-51.254,51.254
			v268.32h-33.92v-228.32c-1.141-29.448-25.938-52.395-55.386-51.254c-27.848,1.079-50.175,23.406-51.254,51.254v228.32h-33.92
			v-188.4c-1.141-29.448-25.938-52.395-55.386-51.254c-27.848,1.079-50.175,23.406-51.254,51.254v188.4H8c-4.418,0-8,3.582-8,8
			s3.582,8,8,8h454c4.418,0,8-3.582,8-8S466.418,386.807,462,386.807z M57.04,386.807v-188.4
			c0.955-20.611,18.437-36.546,39.048-35.592c19.275,0.893,34.699,16.317,35.592,35.592l0.08,188.4H57.04z M197.6,386.807v-228.32
			c0.955-20.611,18.437-36.546,39.048-35.592c19.275,0.893,34.699,16.317,35.592,35.592l0.08,228.32H197.6z M338.16,386.807v-268.32
			c0.954-20.611,18.437-36.546,39.048-35.592c19.275,0.893,34.699,16.317,35.592,35.592l0.08,268.32H338.16z"/>
	</g>
</g>
<g>
</g>
<g>
</g>
<g>
</g>
<g>
</g>
<g>
</g>
<g>
</g>
<g>
</g>
<g>
</g>
<g>
</g>
<g>
</g>
<g>
</g>
<g>
</g>
<g>
</g>
<g>
</g>
<g>
</g>
</svg>
