<?xml version="1.0" encoding="iso-8859-1"?>
<!-- Generator: Adobe Illustrator 19.0.0, SVG Export Plug-In . SVG Version: 6.00 Build 0)  -->
<svg version="1.1" id="Capa_1" xmlns="http://www.w3.org/2000/svg" xmlns:xlink="http://www.w3.org/1999/xlink" x="0px" y="0px"
	 viewBox="0 0 399.04 399.04" style="enable-background:new 0 0 399.04 399.04;" xml:space="preserve">
<g>
	<g>
		<path d="M315.76,100.72H16v-61.2c0-0.486,0.394-0.88,0.88-0.88h91.04v32.88c0,4.418,3.582,8,8,8s8-3.582,8-8V38.64h99.6
			c4.418,0,8-3.582,8-8s-3.582-8-8-8H16.8C7.509,22.684,0,30.229,0,39.52v320c0,9.323,7.557,16.88,16.88,16.88h68.08
			c4.418,0,8-3.582,8-8s-3.582-8-8-8H16.8c-0.455-0.042-0.802-0.424-0.8-0.88V227.44h205.12c4.418,0,8-3.582,8-8s-3.582-8-8-8
			h-90.56v-56.72c0-4.418-3.582-8-8-8h-56c-4.418,0-8,3.582-8,8s3.582,8,8,8h48v48.8H16v-94.8h186v51.76c0,4.418,3.582,8,8,8
			s8-3.582,8-8v-51.76h89.76v156.96c0,4.418,3.582,8,8,8s8-3.582,8-8V108.72C323.76,104.302,320.178,100.72,315.76,100.72z"/>
	</g>
</g>
<g>
	<g>
		<path d="M382.24,22.64h-89.68c-4.418,0-8,3.582-8,8s3.582,8,8,8h89.68c0.486,0,0.88,0.394,0.88,0.88v320
			c0,0.486-0.394,0.88-0.88,0.88H158.8v-78.72h20.8c4.418,0,8-3.582,8-8s-3.582-8-8-8h-98c-4.418,0-8,3.582-8,8s3.582,8,8,8h61.2
			v86.72c0,4.418,3.582,8,8,8h231.44c9.291-0.044,16.8-7.589,16.8-16.88v-320C399.04,30.229,391.531,22.684,382.24,22.64z"/>
	</g>
</g>
<g>
	<g>
		<path d="M268.48,167.52c-4.418,0-8,3.582-8,8h-0.32v129.52h-68.64c-4.418,0-8,3.582-8,8s3.582,8,8,8h76.96c4.418,0,8-3.582,8-8
			V175.52C276.48,171.102,272.898,167.52,268.48,167.52z"/>
	</g>
</g>
<g>
</g>
<g>
</g>
<g>
</g>
<g>
</g>
<g>
</g>
<g>
</g>
<g>
</g>
<g>
</g>
<g>
</g>
<g>
</g>
<g>
</g>
<g>
</g>
<g>
</g>
<g>
</g>
<g>
</g>
</svg>
