<?xml version="1.0" encoding="iso-8859-1"?>
<!-- Generator: Adobe Illustrator 19.0.0, SVG Export Plug-In . SVG Version: 6.00 Build 0)  -->
<svg version="1.1" id="Capa_1" xmlns="http://www.w3.org/2000/svg" xmlns:xlink="http://www.w3.org/1999/xlink" x="0px" y="0px"
	 viewBox="0 0 396 396" style="enable-background:new 0 0 396 396;" xml:space="preserve">
<g>
	<g>
		<path d="M340.64,20.92H55.36C28.64,20.92,0,35.48,0,76.28v191.2c0,40.8,28.64,55.36,55.36,55.36h105.6v35.2h-17.6
			c-4.705,0-8.52,3.815-8.52,8.52c0,4.705,3.815,8.52,8.52,8.52h112.48c4.705,0,8.52-3.815,8.52-8.52c0-4.706-3.815-8.52-8.52-8.52
			h-20.8v-35.2h105.6c40.8,0,55.36-28.64,55.36-55.36V76.28C396,35.48,367.36,20.92,340.64,20.92z M218,358.04h-40v-35.2h40V358.04z
			 M378.96,267.48c0,11.52-3.76,38.32-38.32,38.32H55.36c-11.52,0-38.32-3.76-38.32-38.32V255.4h361.92V267.48z M378.96,238.36
			H17.04V76.28c0-34.56,26.8-38.32,38.32-38.32h285.28c11.52,0,38.32,3.76,38.32,38.32V238.36z"/>
	</g>
</g>
<g>
	<g>
		<path d="M259.951,94.105c-0.01-0.022-0.021-0.044-0.031-0.065c-17.786-33.977-59.749-47.102-93.725-29.315
			c-22.825,11.949-37.159,35.552-37.235,61.315c0,4.683,3.797,8.48,8.48,8.48H198c1.365,0,2.71-0.329,3.92-0.96l54-28.16
			C260.152,103.394,261.957,98.338,259.951,94.105z M195.92,117.4h-49.6c4.218-25.268,26.062-43.799,51.68-43.84v0
			c16.499-0.025,32.041,7.745,41.92,20.96L195.92,117.4z"/>
	</g>
</g>
<g>
	<g>
		<path d="M267.68,122.12c-2.13-4.171-7.238-5.826-11.409-3.696c-0.01,0.005-0.021,0.011-0.031,0.016l-52.16,27.2h-58.8
			c-4.683,0-8.48,3.797-8.48,8.48c-0.019,38.351,31.055,69.455,69.406,69.474c38.351,0.019,69.455-31.055,69.474-69.406
			c0-0.023,0-0.046,0-0.069C275.657,142.961,272.911,131.977,267.68,122.12z M206.322,206.519c-0.107,0.001-0.214,0.001-0.322,0.001
			c-25.643-0.047-47.497-18.62-51.68-43.92H206c1.365,0,2.71-0.329,3.92-0.96l45.84-24c1.714,5.162,2.605,10.561,2.64,16
			C258.621,182.623,235.305,206.298,206.322,206.519z"/>
	</g>
</g>
<g>
</g>
<g>
</g>
<g>
</g>
<g>
</g>
<g>
</g>
<g>
</g>
<g>
</g>
<g>
</g>
<g>
</g>
<g>
</g>
<g>
</g>
<g>
</g>
<g>
</g>
<g>
</g>
<g>
</g>
</svg>
